<svg id="visual" viewBox="0 0 900 600" width="900" height="600" xmlns="http://www.w3.org/2000/svg" xmlns:xlink="http://www.w3.org/1999/xlink" version="1.1"><rect width="900" height="600" fill="#2f1db4"></rect><g><g transform="translate(69 551)"><path d="M103.8 -33.6C115.5 2.2 92.7 49.3 55.5 76.3C18.2 103.4 -33.6 110.4 -64.2 88.2C-94.7 66 -104.1 14.6 -89.9 -24.8C-75.6 -64.1 -37.8 -91.3 4.1 -92.7C46.1 -94 92.1 -69.5 103.8 -33.6Z" stroke="#088c99" fill="none" stroke-width="20"></path></g><g transform="translate(313 327)"><path d="M56.1 -16.6C65.1 9.3 59.4 41.6 38.8 57.5C18.2 73.4 -17.2 73 -39.2 56.4C-61.1 39.9 -69.6 7.3 -60.8 -18.3C-52 -44 -26 -62.6 -1.2 -62.2C23.6 -61.8 47.2 -42.4 56.1 -16.6Z" stroke="#088c99" fill="none" stroke-width="20"></path></g><g transform="translate(814 454)"><path d="M76.9 -25.7C88.2 9.7 77.9 51.4 51.3 70.8C24.7 90.2 -18.3 87.3 -46.3 66.4C-74.2 45.4 -87.1 6.5 -76.9 -27.5C-66.7 -61.4 -33.4 -90.4 -0.3 -90.3C32.8 -90.2 65.6 -61.1 76.9 -25.7Z" stroke="#088c99" fill="none" stroke-width="20"></path></g></g></svg>