<svg id="visual" viewBox="0 0 900 600" width="900" height="600" xmlns="http://www.w3.org/2000/svg" xmlns:xlink="http://www.w3.org/1999/xlink" version="1.1"><rect x="0" y="0" width="900" height="600" fill="#002233"></rect><path d="M0 430L21.5 431.8C43 433.7 86 437.3 128.8 451.2C171.7 465 214.3 489 257.2 481.5C300 474 343 435 385.8 436.5C428.7 438 471.3 480 514.2 484.7C557 489.3 600 456.7 642.8 446.2C685.7 435.7 728.3 447.3 771.2 452.8C814 458.3 857 457.7 878.5 457.3L900 457L900 601L878.5 601C857 601 814 601 771.2 601C728.3 601 685.7 601 642.8 601C600 601 557 601 514.2 601C471.3 601 428.7 601 385.8 601C343 601 300 601 257.2 601C214.3 601 171.7 601 128.8 601C86 601 43 601 21.5 601L0 601Z" fill="#0066FF" stroke-linecap="round" stroke-linejoin="miter"></path></svg>